<svg width="176" height="41" viewBox="0 0 176 41" fill="none" xmlns="http://www.w3.org/2000/svg">
<path d="M62.5283 34.407C58.705 34.407 55.856 33.4573 53.9813 31.558C52.1067 29.6587 51.1693 26.8343 51.1693 23.085V7.915H56.9413V23.122C56.9413 25.2187 57.3853 26.8097 58.2733 27.895C59.186 28.9803 60.6043 29.523 62.5283 29.523C64.403 29.523 65.7967 28.9803 66.7093 27.895C67.6467 26.8097 68.1153 25.2187 68.1153 23.122V7.915H73.8133V23.085C73.8133 26.8343 72.8637 29.6587 70.9643 31.558C69.0897 33.4573 66.2777 34.407 62.5283 34.407ZM78.9228 34V7.915H84.6948V34H78.9228ZM101.19 34.407C97.3671 34.407 94.5181 33.4573 92.6434 31.558C90.7688 29.6587 89.8314 26.8343 89.8314 23.085V7.915H95.6034V23.122C95.6034 25.2187 96.0474 26.8097 96.9354 27.895C97.8481 28.9803 99.2664 29.523 101.19 29.523C103.065 29.523 104.459 28.9803 105.371 27.895C106.309 26.8097 106.777 25.2187 106.777 23.122V7.915H112.475V23.085C112.475 26.8343 111.526 29.6587 109.626 31.558C107.752 33.4573 104.94 34.407 101.19 34.407ZM114.002 34L124.917 19.496V22.049L114.298 7.915H121.069L128.173 17.868H126.323L133.464 7.915H140.235L129.579 22.049V19.496L140.568 34H133.76L126.323 23.677H128.21L120.736 34H114.002ZM151.292 34.407C148.036 34.407 145.496 33.5313 143.67 31.78C141.845 30.0287 140.932 27.6483 140.932 24.639C140.932 22.6903 141.315 20.9883 142.079 19.533C142.869 18.0777 143.954 16.943 145.335 16.129C146.741 15.2903 148.382 14.871 150.256 14.871C152.106 14.871 153.648 15.2657 154.881 16.055C156.139 16.8443 157.077 17.9543 157.693 19.385C158.335 20.791 158.655 22.4313 158.655 24.306V25.601H145.52V22.826H154.585L153.956 23.344C153.956 21.79 153.636 20.6183 152.994 19.829C152.378 19.015 151.477 18.608 150.293 18.608C148.986 18.608 147.975 19.089 147.259 20.051C146.569 21.013 146.223 22.3943 146.223 24.195V24.787C146.223 26.6123 146.667 27.969 147.555 28.857C148.468 29.745 149.775 30.189 151.477 30.189C152.489 30.189 153.438 30.0657 154.326 29.819C155.239 29.5477 156.102 29.1283 156.916 28.561L158.47 32.261C157.533 32.9517 156.448 33.482 155.214 33.852C154.006 34.222 152.698 34.407 151.292 34.407ZM162.163 34V20.199C162.163 19.385 162.139 18.5587 162.089 17.72C162.065 16.8813 162.003 16.055 161.904 15.241H167.269L167.898 20.717H167.047C167.294 19.385 167.689 18.2873 168.231 17.424C168.799 16.5607 169.489 15.9193 170.303 15.5C171.142 15.0807 172.092 14.871 173.152 14.871C173.621 14.871 173.991 14.8957 174.262 14.945C174.534 14.9697 174.805 15.0313 175.076 15.13L175.039 20.051C174.521 19.829 174.077 19.6933 173.707 19.644C173.362 19.57 172.918 19.533 172.375 19.533C171.339 19.533 170.476 19.7303 169.785 20.125C169.119 20.5197 168.614 21.0993 168.268 21.864C167.948 22.6287 167.787 23.5537 167.787 24.639V34H162.163Z" fill="#242F65"/>
<path d="M36.7884 10.1693C40.1956 13.5765 40.1956 19.1006 36.7884 22.5078L25.8209 33.4753C22.4138 36.8824 16.8897 36.8824 13.4825 33.4753C10.0753 30.0681 10.0753 24.544 13.4825 21.1368L24.45 10.1693C27.8572 6.76218 33.3813 6.76218 36.7884 10.1693Z" fill="#7390F9"/>
<path d="M25.8613 33.4751C22.4541 36.8822 16.93 36.8822 13.5229 33.4751L2.55537 22.5076C-0.85179 19.1004 -0.851791 13.5763 2.55537 10.1691C5.96253 6.76198 11.4866 6.76198 14.8938 10.1691L25.8613 21.1366C29.2685 24.5438 29.2685 30.0679 25.8613 33.4751Z" fill="#FF774C"/>
<path d="M26.3425 32.9603L25.8209 33.4819C24.1336 35.1692 21.9271 36.0209 19.7156 36.037C17.475 36.043 15.2324 35.1913 13.5229 33.4817L12.999 32.9578C10.0838 29.5299 10.245 24.381 13.4825 21.1435L19.672 14.954L25.8613 21.1433C29.0997 24.3816 29.2601 29.5324 26.3425 32.9603Z" fill="#242F65"/>
</svg>
